<?xml version="1.0" encoding="UTF-8"?><svg id="Layer_1" xmlns="http://www.w3.org/2000/svg" viewBox="0 0 1000 291.38"><defs><style>.cls-1{fill:none;}.cls-2{fill:#f79a23;}.cls-3{fill:#fff;}.cls-4{fill:#d22128;}.cls-5{fill:#dd552c;}.cls-6{fill:#7c297d;}</style></defs><path class="cls-1" d="m506.36,247.65c0-5.04-3.3-8.05-8.82-8.05h-9.76v16.04h9.76c5.52,0,8.82-2.99,8.82-7.99Z"/><polygon class="cls-1" points="510.37 164.46 545.57 164.46 527.88 118.73 510.37 164.46"/><path class="cls-1" d="m428.82,128.56c0-12.86-8.4-20.37-23.22-20.37h-18.22v40.91h18.22c14.83,0,23.22-7.33,23.22-20.55Z"/><path class="cls-1" d="m266.85,239.1c-9.33,0-15.59,6.33-15.59,15.75s6.27,15.76,15.59,15.76,15.53-6.33,15.53-15.76-6.24-15.75-15.53-15.75Z"/><polygon class="cls-1" points="253.14 164.46 288.33 164.46 270.65 118.73 253.14 164.46"/><polygon class="cls-1" points="815.63 260.48 830.48 260.48 823.03 242.41 815.63 260.48"/><path class="cls-1" d="m925.04,239.1c-9.33,0-15.59,6.33-15.59,15.75s6.27,15.76,15.59,15.76,15.53-6.33,15.53-15.76-6.24-15.75-15.53-15.75Z"/><path class="cls-1" d="m776.89,239.71h-7.67v30.3h7.77c9.75,0,15.81-5.81,15.81-15.15s-5.95-15.15-15.92-15.15Z"/><path class="cls-1" d="m637.71,239.1c-9.33,0-15.59,6.33-15.59,15.75s6.27,15.76,15.59,15.76,15.53-6.33,15.53-15.76-6.24-15.75-15.53-15.75Z"/><polygon class="cls-1" points="446.06 260.48 460.91 260.48 453.46 242.41 446.06 260.48"/><path class="cls-3" d="m334.25,208.41l-49.67-125.06h-27.87l-49.67,125.06h30.19l8.58-21.62h49.66l8.4,21.62h30.37Zm-81.11-43.95l17.51-45.74,17.68,45.74h-35.19Z"/><path class="cls-3" d="m387.55,173.58h20.37c30.19,0,49.66-17.69,49.66-45.2s-19.47-45.02-49.66-45.02h-48.77v125.06h28.41v-34.84Zm-.18-65.39h18.22c14.83,0,23.22,7.5,23.22,20.37s-8.4,20.55-23.22,20.55h-18.22s0-40.91,0-40.91Z"/><path class="cls-3" d="m541.81,83.36h-27.87l-49.67,125.06h30.19l8.58-21.62h49.66l8.4,21.62h30.37s-49.67-125.06-49.67-125.06Zm-31.44,81.11l17.51-45.74,17.68,45.74h-35.19Z"/><path class="cls-3" d="m703.62,160.54c-5.18,14.47-18.4,23.4-34.84,23.4-21.26,0-36.27-15.54-36.27-38.05s15.19-38.05,36.45-38.05c15.9,0,29.12,8.58,33.76,22.51h29.3c-7.15-30.19-32.16-49.49-63.96-49.49-37.88,0-64.5,26.8-64.5,65.03s26.62,65.03,64.68,65.03c32.87,0,58.42-20.01,64.67-50.38h-29.3Z"/><polygon class="cls-3" points="791.24 158.03 840.01 158.03 840.01 208.41 868.42 208.41 868.42 83.36 840.01 83.36 840.01 131.41 791.24 131.41 791.24 83.36 762.83 83.36 762.83 208.41 791.24 208.41 791.24 158.03"/><polygon class="cls-3" points="935.25 156.96 984.38 156.96 984.38 133.02 935.25 133.02 935.25 107.29 989.03 107.29 989.03 83.36 907.03 83.36 907.03 208.41 990.99 208.41 990.99 184.29 935.25 184.29 935.25 156.96"/><polygon class="cls-3" points="216.85 61.36 222.11 61.36 222.11 26.02 235.38 26.02 235.38 20.87 203.58 20.87 203.58 26.02 216.85 26.02 216.85 61.36"/><polygon class="cls-3" points="251.33 43.3 272.05 43.3 272.05 61.36 277.37 61.36 277.37 20.87 272.05 20.87 272.05 38.15 251.33 38.15 251.33 20.87 246.07 20.87 246.07 61.36 251.33 61.36 251.33 43.3"/><polygon class="cls-3" points="317.56 56.38 297.57 56.38 297.57 43.25 315.52 43.25 315.52 38.26 297.57 38.26 297.57 25.8 316.95 25.8 316.95 20.87 292.31 20.87 292.31 61.36 317.56 61.36 317.56 56.38"/><path class="cls-3" d="m221.51,252.31c-8.5-1.92-10.24-4.28-10.24-7.25,0-3.81,3.4-6.18,8.88-6.18,5.96,0,9.41,2.72,9.7,7.67l.06.92h5.19l-.05-1.02c-.36-7.82-5.93-12.49-14.91-12.49s-14.14,4.36-14.14,11.11c0,6.29,4.23,9.89,14.14,12.02,9,2.02,10.24,4.73,10.24,7.36,0,3.95-3.57,6.4-9.31,6.4-6.26,0-10.18-3.03-10.47-8.11l-.05-.92h-5.26l.05,1.03c.41,7.98,6.44,12.93,15.73,12.93s14.63-4.38,14.63-11.44c0-6.22-4.25-9.82-14.2-12.02Z"/><path class="cls-3" d="m266.85,233.95c-12.34,0-20.96,8.6-20.96,20.91s8.62,20.91,20.96,20.91,20.91-8.6,20.91-20.91-8.6-20.91-20.91-20.91Zm0,36.66c-9.33,0-15.59-6.33-15.59-15.76s6.27-15.75,15.59-15.75,15.53,6.33,15.53,15.75-6.24,15.76-15.53,15.76Z"/><polygon class="cls-3" points="300.5 275.1 305.76 275.1 305.76 257.99 322.22 257.99 322.22 253 305.76 253 305.76 239.65 323.65 239.65 323.65 234.61 300.5 234.61 300.5 275.1"/><polygon class="cls-3" points="333.16 239.76 346.43 239.76 346.43 275.1 351.69 275.1 351.69 239.76 364.96 239.76 364.96 234.61 333.16 234.61 333.16 239.76"/><polygon class="cls-3" points="416.06 265.89 404.74 234.61 400.18 234.61 388.85 265.82 378.61 234.61 373.09 234.61 386.33 275.1 391.04 275.1 402.46 243.53 413.94 275.1 418.58 275.1 431.89 234.61 426.3 234.61 416.06 265.89"/><path class="cls-3" d="m455.76,234.61h-4.56l-16.77,40.49h5.64l4.07-9.74h18.63l4.07,9.74h5.64l-16.47-39.89-.25-.6Zm-9.7,25.87l7.41-18.08,7.45,18.08h-14.86Z"/><path class="cls-3" d="m511.68,247.65c0-7.92-5.42-13.03-13.81-13.03h-15.35v40.49h5.26v-14.48h8.81l10.24,14.48h6.37l-10.71-15.05c5.71-1.62,9.19-6.25,9.19-12.41Zm-23.89,7.99v-16.04h9.76c5.52,0,8.82,3.01,8.82,8.05s-3.3,7.99-8.82,7.99h-9.76Z"/><polygon class="cls-3" points="530.13 256.99 548.08 256.99 548.08 252.01 530.13 252.01 530.13 239.54 549.51 239.54 549.51 234.61 524.87 234.61 524.87 275.1 550.12 275.1 550.12 270.12 530.13 270.12 530.13 256.99"/><polygon class="cls-3" points="584.12 275.1 589.38 275.1 589.38 257.99 605.84 257.99 605.84 253 589.38 253 589.38 239.65 607.27 239.65 607.27 234.61 584.12 234.61 584.12 275.1"/><path class="cls-3" d="m637.71,233.95c-12.34,0-20.96,8.6-20.96,20.91s8.62,20.91,20.96,20.91,20.91-8.6,20.91-20.91-8.6-20.91-20.91-20.91Zm0,36.66c-9.33,0-15.59-6.33-15.59-15.76s6.27-15.75,15.59-15.75,15.53,6.33,15.53,15.75-6.24,15.76-15.53,15.76Z"/><path class="cls-3" d="m696.71,258.93c0,7.53-3.66,11.68-10.31,11.68s-10.25-4.15-10.25-11.68v-24.32h-5.26v24.54c0,10.25,5.94,16.61,15.52,16.61s15.56-6.37,15.56-16.61v-24.54h-5.26v24.32Z"/><polygon class="cls-3" points="743.51 265.37 721.32 234.61 716.81 234.61 716.81 275.1 722.07 275.1 722.07 244.3 743.97 274.7 744.26 275.1 748.71 275.1 748.71 234.61 743.51 234.61 743.51 265.37"/><path class="cls-3" d="m776.99,234.61h-13.03v40.49h13.03c12.87,0,21.18-7.95,21.18-20.25s-8.32-20.24-21.18-20.24Zm0,35.4h-7.77v-30.3h7.67c9.97,0,15.92,5.66,15.92,15.15s-6.06,15.15-15.81,15.15Z"/><path class="cls-3" d="m825.33,234.61h-4.56l-16.77,40.49h5.64l4.07-9.74h18.63l4.07,9.74h5.64l-16.47-39.89-.25-.6Zm-9.71,25.87l7.41-18.08,7.45,18.08h-14.86Z"/><polygon class="cls-3" points="843.33 239.76 856.59 239.76 856.59 275.1 861.86 275.1 861.86 239.76 875.12 239.76 875.12 234.61 843.33 234.61 843.33 239.76"/><rect class="cls-3" x="886.09" y="234.61" width="5.26" height="40.49"/><path class="cls-3" d="m925.04,233.95c-12.34,0-20.96,8.6-20.96,20.91s8.62,20.91,20.96,20.91,20.91-8.6,20.91-20.91-8.6-20.91-20.91-20.91Zm0,36.66c-9.33,0-15.59-6.33-15.59-15.76s6.27-15.75,15.59-15.75,15.53,6.33,15.53,15.75-6.24,15.76-15.53,15.76Z"/><polygon class="cls-3" points="985.39 265.37 963.2 234.61 958.69 234.61 958.69 275.1 963.95 275.1 963.95 244.3 985.85 274.7 986.15 275.1 990.6 275.1 990.6 234.61 985.39 234.61 985.39 265.37"/><path class="cls-5" d="m74.88,115.79c7.5-18.53,15.86-37.03,24.83-53.43-13.4-9.95-26.26-31.4-31.54-40.91-1.9,2.16-3.13,4.64-3.69,6.66-4.98,17.98,12.74,39.68-1.53,31.75-11.89-6.61-38.67-21.08-48.89-6.7,11.44,14.7,41.36,51.68,60.82,62.62Z"/><path class="cls-2" d="m99.71,62.36c8.7-15.89,17.96-29.8,27.57-39.82,0,0-9.58,13.87-23.27,41.6,8.29,2.28,31.89,6.97,64.77-1.53.81-5.98-3.21-12.55-23.23-14.75-13.07-1.43,15.69-31.21-5.14-45.29-.67-.46-1.33-.86-1.98-1.22-.7-.25-1.44-.48-2.22-.68-24.33-6.35-27.7,34.9-37.41,26.04-15.69-14.33-25.59-10.98-30.63-5.25,5.28,9.51,18.15,30.96,31.54,40.91h0Z"/><path class="cls-4" d="m55.31,169.19c5.49-16.45,12.1-34.94,19.57-53.4-19.45-10.94-49.38-47.92-60.82-62.62-2.04,2.87-3.44,6.88-3.9,12.36-2.49,29.44,27.88,51.24,21.83,55.22-8.01,5.27-23.95-12.65-30.24-1.27,9.11,11.7,27.66,32.84,53.57,49.7Z"/><path class="cls-5" d="m139.47,105.69c-15.38-5.49,16.07-20.2,26.29-35.8,1.31-2,2.66-4.57,3.02-7.28-32.88,8.49-56.49,3.81-64.77,1.53-7.09,14.36-15.27,32.45-23.8,54.26,8.89,3.8,45.17,17.84,96.42,17.91,8.62-22.44-22.56-25.41-37.16-30.61h0Z"/><path class="cls-4" d="m61.25,172.15c9.04,2.82,38.98,11.23,70.79,9.96,4.27-11.57-11.7-12.7-13-21.97-1.01-7.18,42.04,6.03,55.89-20.07.7-1.32,1.25-2.57,1.71-3.77-51.25-.07-87.53-14.11-96.42-17.91-6.24,15.94-12.65,33.83-18.96,53.76h0Z"/><path class="cls-6" d="m61.25,172.15c-4.06,12.83-8.07,26.53-11.96,41.02-1.38,5.14-2.74,10.37-4.09,15.71,30.19,9.96,57.98.02,58.92-12.3,0-.1-.01-.17,0-.26.72-13.05-18.84-5.82-18.38-13.66.46-7.9,34.15-.05,44.57-16.99.8-1.3,1.32-2.45,1.72-3.55-31.8,1.27-61.75-7.15-70.79-9.96h0Z"/><path class="cls-6" d="m1.74,119.49c-.44.8-.84,1.72-1.18,2.82-5.85,19.01,35.52,44.55,29.89,50.12-5.07,5.02-11.68-6.45-19.84-1.71-.89.52-1.8,1.18-2.73,2.13-9.22,9.45-.14,36.66,26.02,51.19-6.1,20.5-12.18,43.4-18.13,67.35,2.16-.76,4.74-1.51,5.38-3.55.97-3.97,6.93-28.11,16.62-60.87,0,0,1.77-6.71,5-17.77,2.99-10.22,7.24-24.17,12.53-40.01C29.4,152.33,10.85,131.19,1.74,119.49h0Z"/></svg>
