<?xml version="1.0" encoding="UTF-8"?>
<svg id="Layer_1" xmlns="http://www.w3.org/2000/svg" viewBox="0 0 1280 525">
  <defs>
    <style>
      .cls-0 {
        fill: #2A2A35;
      }
      .cls-1 {
        fill: #7c297d;
      }
      .cls-2 {
        fill: #f79a23;
      }
      .cls-3 {
        fill: #dd552c;
      }
      .cls-4 {
        fill: #d22128;
      }
    </style>
  </defs>
  <g>
    <path class="cls-0" d="M 521.53613,218.31543 V 404 H 475.1543 V 218.31543 h -71.53809 v -35.84766 h 189.61524 v 35.84766 z m 143.18946,49.52637 q 8.96191,-19.4961 22.48339,-28.30078 13.52149,-8.80469 32.23145,-8.80469 27.04297,0 41.50781,16.66601 14.46485,16.66602 14.46485,48.74024 V 404 h -44.02344 v -95.2793 q 0,-44.80957 -30.34473,-44.80957 -16.03711,0 -25.94238,13.83594 -9.74805,13.67871 -9.74805,35.21875 V 404 H 621.17383 V 170.67578 h 44.18066 v 63.67676 q 0,17.13769 -1.25781,33.48926 z M 819.86426,404 V 273.81641 q 0,-13.99317 -0.47168,-23.26954 -0.31446,-9.43359 -0.78613,-16.66601 h 42.13671 q 0.47168,2.83008 1.25782,17.29492 0.78613,14.30762 0.78613,19.02442 h 0.62891 q 6.44628,-17.92383 11.47753,-25.15625 5.03125,-7.38965 11.94922,-10.84864 6.91797,-3.61621 17.29493,-3.61621 8.49023,0 13.67871,2.3584 v 36.94824 q -10.69141,-2.3584 -18.86719,-2.3584 -16.50879,0 -25.78516,13.36426 -9.11914,13.36426 -9.11914,39.6211 V 404 Z M 947.17383,203.22168 v -32.5459 h 44.18066 v 32.5459 z m 0,200.77832 V 233.88086 h 44.18066 V 404 Z M 1090.5205,263.75391 V 404 h -44.0234 V 263.75391 h -24.8418 v -29.87305 h 24.8418 v -17.7666 q 0,-23.11231 12.2636,-34.27539 12.2637,-11.16309 37.2627,-11.16309 12.4209,0 27.9864,2.51563 v 28.458 q -6.4463,-1.41504 -12.8926,-1.41504 -11.3203,0 -16.0371,4.55958 -4.5596,4.40234 -4.5596,15.72265 v 13.36426 h 33.4893 v 29.87305 z m 100.8955,143.07617 q -19.4961,0 -30.0303,-10.53418 -10.5341,-10.69141 -10.5341,-32.23145 V 263.75391 h -21.5401 v -29.87305 h 23.7412 l 13.836,-39.93555 h 27.6718 v 39.93555 h 32.2315 v 29.87305 h -32.2315 v 88.36132 q 0,12.4209 4.7168,18.39551 4.7168,5.81738 14.6221,5.81738 5.1885,0 14.7793,-2.20117 v 27.35742 q -16.3516,5.34571 -37.2627,5.34571 z" aria-label="Thrift" />
  </g>
  <g>
    <path class="cls-3" d="M141.1077177,209.8881008c13.1869872-32.608129,27.9005344-65.1523006,43.6878912-93.9970469-23.5665852-17.5041056-46.1956909-55.2490163-55.4930639-71.9721694-3.3392448,3.7936783-5.5070609,8.1629723-6.4899838,11.7176522-8.7587851,31.6252061,22.4204029,69.8144518-2.6929393,55.86166-20.9241385-11.6267655-68.040478-37.0885068-86.0124818-11.7816095,20.1280383,25.862316,72.7733189,90.9304622,107.0005776,110.1715137Z"/>
    <path class="cls-2" d="M184.7956089,115.8910539c15.2975784-27.9493439,31.5999598-52.4281623,48.5015202-70.0635487,0,0-16.8578001,24.4013964-40.9360438,73.180626,14.5822664,4.0158458,56.1124399,12.2562401,113.9601427-2.686207,1.4222086-10.5125619-5.645074-22.0753701-40.8636711-25.9464703-22.9926525-2.5246306,27.5975787-54.9023003-9.0516423-79.6739759-1.1832102-.8011494-2.3462234-1.508046-3.4856733-2.1408868-1.2286536-.4409688-2.5263137-.8449097-3.9114944-1.2050903-42.8025874-11.1689658-48.7354693,61.409115-65.8154369,45.8068978-27.6009449-25.2126444-45.0225792-19.3218396-53.890765-9.2435142,9.297373,16.7231532,31.9264787,54.4680639,55.4930639,71.9721694Z"/>
    <path class="cls-4" d="M106.6818547,303.8380213c9.6626029-28.9457315,21.2860022-61.4663399,34.425863-93.9499204-34.2272587-19.2410514-86.8725393-84.3091977-107.0005776-110.1715137-3.5933909,5.0559936-6.0490149,12.1081284-6.8669953,21.7522173-4.3894911,51.802054,49.0518897,90.152876,38.3979485,97.1578844-14.0924881,9.2670774-42.1411341-22.2605096-53.19565-2.2284073,16.0229889,20.5841549,48.6614135,57.7770131,94.2394114,87.4397396Z"/>
    <path class="cls-3" d="M254.7564893,192.1180675c-27.0589909-9.6508213,28.2758628-35.5333343,46.2445004-62.9912168,2.2990969-3.5109196,4.6756159-8.0485224,5.3202382-12.8049265-57.8477027,14.942447-99.3778763,6.7020527-113.9601427,2.686207-12.4649429,25.2564046-26.8587035,57.0835812-41.8701571,95.4579665,15.6341958,6.6852219,79.4703224,31.3794754,169.6366631,31.50739,15.1595653-39.4852227-39.6905594-44.6994265-65.3711019-53.8554202Z"/>
    <path class="cls-4" d="M117.1371916,309.0488589c15.9001236,4.9550083,68.5841152,19.7560761,124.5366618,17.5276688,7.5166669-20.3518889-20.585838-22.3379316-22.8748364-38.6605101-1.7722907-12.6298854,73.9565291,10.6135471,98.3225807-35.3111668,1.2320197-2.3226602,2.1930625-4.5140395,3.0059935-6.6313631-90.1663407-.1279146-154.0024672-24.8221682-169.6366631-31.50739-10.9703615,28.0435968-22.2554604,59.5173251-33.3537365,94.5827612Z"/>
    <path class="cls-1" d="M117.1371916,309.0488589c-7.1447046,22.5701977-14.1934733,46.6821031-21.0352222,72.1640414-2.4270116,9.0348114-4.8254106,18.2379315-7.190148,27.6430221,53.1064464,17.531035,102.0085414.0403941,103.6663821-21.6377674.0134647-.1716749-.018514-.2995895-.0084154-.464532,1.2639984-22.9606739-33.150083-10.2331694-32.3354689-24.0378496.8179803-13.9056654,60.0811593-.0807882,78.4082944-29.8949926,1.4053777-2.2856322,2.3209771-4.3154353,3.0312398-6.244253-55.9525467,2.2284073-108.6365383-12.5726604-124.5366618-17.5276688Z"/>
    <path class="cls-1" d="M12.4424433,216.3982816c-.7742201,1.4036946-1.4727012,3.0261906-2.068514,4.9651069-10.2920775,33.4496725,62.4846076,78.3847312,52.5830064,88.180298-8.9254108,8.8261086-20.5572255-11.3440069-34.9004936-3.0127259-1.5720033.9155994-3.1675699,2.0701971-4.8052136,3.749918-16.2215932,16.6188018-.2541461,64.4958967,45.7698699,90.0518908-10.7397786,36.0618236-21.4324308,76.351562-31.8995493,118.4859638,3.7970444-1.3296388,8.3413795-2.6626438,9.4724141-6.244253,1.6982349-6.9814452,12.1939658-49.4625629,29.2352225-107.0948305,0,0,3.1103449-11.8051727,8.8042285-31.254927,5.2646964-17.9854685,12.7460184-42.5147795,22.0484407-70.3867014-45.577998-29.6627266-78.2164225-66.8555847-94.2394114-87.4397396Z"/>
  </g>
  <g>
    <path class="cls-1" d="m 454.70312,140 -7.54687,-19.3125 H 417.0625 L 409.46875,140 H 400.1875 L 427.14062,73.953125 H 437.3125 L 463.84375,140 Z m -22.59375,-59.296875 -0.42187,1.3125 Q 430.51562,85.90625 428.21875,92 l -8.4375,21.70313 h 24.70312 L 436,91.90625 q -1.3125,-3.234375 -2.625,-7.3125 z M 525,93.828125 q 0,9.375005 -6.14063,14.906255 -6.09375,5.53125 -16.59375,5.53125 H 482.85937 V 140 h -8.95312 V 73.953125 h 27.79687 q 11.10938,0 17.20313,5.203125 Q 525,84.359375 525,93.828125 Z m -9,0.09375 Q 516,81.125 500.625,81.125 h -17.76563 v 26.0625 H 501 q 15,0 15,-13.265625 z M 579.64062,140 572.09375,120.6875 H 542 L 534.40625,140 H 525.125 L 552.07812,73.953125 H 562.25 L 588.78125,140 Z m -22.59375,-59.296875 -0.42187,1.3125 Q 555.45312,85.90625 553.15625,92 l -8.4375,21.70313 h 24.70312 L 560.9375,91.90625 q -1.3125,-3.234375 -2.625,-7.3125 z m 71.04688,-0.421875 q -10.96875,0 -17.0625,7.078125 -6.09375,7.03125 -6.09375,19.312505 0,12.14062 6.32812,19.54687 6.375,7.35937 17.20313,7.35937 13.875,0 20.85937,-13.73437 l 7.3125,3.65625 q -4.07812,8.53125 -11.48437,12.98437 -7.35938,4.45313 -17.10938,4.45313 -9.98437,0 -17.29687,-4.125 -7.26563,-4.17188 -11.10938,-11.85937 -3.79687,-7.73438 -3.79687,-18.28125 0,-15.79688 8.53125,-24.750005 8.53125,-8.953125 23.625,-8.953125 10.54687,0 17.625,4.125 7.07812,4.125 10.40625,12.234375 l -8.48438,2.8125 Q 645.25,86.375 640.14062,83.328125 635.07812,80.28125 628.09375,80.28125 Z M 714.84375,140 V 109.39063 H 679.125 V 140 h -8.95313 V 73.953125 h 8.95313 v 27.937505 h 35.71875 V 73.953125 h 8.95312 V 140 Z M 741.5,140 V 73.953125 h 50.10937 v 7.3125 h -41.15625 v 21.187505 h 38.34375 v 7.21875 h -38.34375 v 23.01562 h 43.07813 V 140 Z" aria-label="APACHE" />
  </g>
</svg>
