<svg xmlns="http://www.w3.org/2000/svg" width="743.841" height="108.537" viewBox="0 0 196.808 28.717"><g aria-label="Apache Thrift" style="font-style:normal;font-variant:normal;font-weight:400;font-stretch:normal;font-size:27.653265px;line-height:125%;font-family:Montserrat;-inkscape-font-specification:Montserrat;letter-spacing:0;word-spacing:0;fill:#353535;fill-opacity:1;stroke:none;stroke-width:1.00557327px;stroke-linecap:butt;stroke-linejoin:miter;stroke-opacity:1"><path d="m14.491 133.68-1.935 4.397H9.07l8.518-19.33h3.484l8.517 19.33h-3.484l-1.936-4.397zm8.352-3.014L19.33 122.7l-3.512 7.965zM39.716 123.144q2.96 0 5.061 2.046 2.102 2.047 2.102 5.448t-2.102 5.53q-2.074 2.13-4.867 2.13-2.765 0-4.978-2.434v7.577h-3.097v-20.076h3.097v2.572q1.826-2.793 4.784-2.793m-4.839 7.604q0 2.102 1.272 3.457 1.272 1.327 3.097 1.327t3.18-1.327 1.355-3.429q0-2.13-1.327-3.512-1.327-1.41-3.18-1.41t-3.125 1.41q-1.272 1.383-1.272 3.484M62.333 138.077h-2.82v-1.964q-1.825 2.185-4.895 2.185-2.295 0-3.816-1.3-1.493-1.3-1.493-3.457 0-2.184 1.604-3.263 1.603-1.078 4.341-1.078h4.01v-.553q0-2.931-3.263-2.931-2.047 0-4.259 1.493l-1.383-1.936q2.683-2.13 6.084-2.13 2.6 0 4.231 1.328 1.66 1.3 1.66 4.12zm-3.097-5.476v-1.244h-3.484q-3.346 0-3.346 2.101 0 1.079.83 1.66.829.553 2.295.553 1.493 0 2.6-.83 1.105-.83 1.105-2.24M73.198 138.298q-3.07 0-5.282-2.074-2.212-2.102-2.212-5.476t2.295-5.475q2.323-2.13 5.642-2.13 3.318 0 5.613 2.296l-1.825 2.24q-1.908-1.66-3.844-1.66t-3.373 1.3q-1.41 1.273-1.41 3.319 0 2.019 1.41 3.429t3.456 1.41q2.074 0 3.9-1.88l1.824 1.99q-2.682 2.71-6.194 2.71M85.702 130.112v7.965h-3.097v-20.491h3.097v8.461q.664-1.355 1.991-2.129 1.355-.774 2.904-.774 2.489 0 4.01 1.52 1.548 1.522 1.548 4.398v9.015h-3.097v-8.075q0-4.065-3.374-4.065-1.604 0-2.793 1.078-1.189 1.051-1.189 3.097M114.17 132.076h-11.53q.11 1.604 1.465 2.6 1.355.967 3.097.967 2.765 0 4.203-1.742l1.77 1.936q-2.378 2.46-6.194 2.46-3.097 0-5.282-2.046-2.157-2.074-2.157-5.53 0-3.484 2.212-5.53t5.2-2.047q3.013 0 5.115 1.825 2.102 1.797 2.102 4.978zm-11.53-2.434h8.434q0-1.852-1.162-2.848t-2.876-.995q-1.687 0-3.042 1.05-1.355 1.024-1.355 2.793M132.854 121.734v16.343h-3.263v-16.343h-5.863v-2.987h14.988v2.987zM144.735 130.112v7.965h-3.097v-20.491h3.097v8.461q.664-1.355 1.991-2.129 1.355-.774 2.904-.774 2.489 0 4.01 1.52 1.548 1.522 1.548 4.398v9.015h-3.097v-8.075q0-4.065-3.374-4.065-1.604 0-2.793 1.078-1.189 1.051-1.189 3.097M167.23 126.269q-2.294 0-3.456 1.493t-1.161 4.01v6.305h-3.097v-14.712h3.097v2.959q.746-1.383 2.018-2.268 1.3-.885 2.738-.912l.028 3.125zM173.577 138.077h-3.097v-14.712h3.097zm-2.904-17.643q-.58-.58-.58-1.383 0-.802.58-1.383.58-.58 1.383-.58.802 0 1.383.58.58.581.58 1.383t-.58 1.383-1.383.58-1.383-.58M181.857 122.148v1.217h3.872v2.489h-3.872v12.223h-3.097v-12.223h-1.853v-2.489h1.853v-1.134q0-2.323 1.383-3.678 1.41-1.382 3.373-1.382 1.991 0 3.623 1.465l-1.272 2.185q-.913-.968-1.908-.968-.996 0-1.549.636-.553.608-.553 1.66M192.551 125.854v7.466q0 1.051.553 1.687.553.608 1.549.608t1.908-.967l1.272 2.184q-1.631 1.466-3.623 1.466-1.963 0-3.373-1.355-1.383-1.383-1.383-3.706v-7.383h-1.853v-2.489h1.853v-4.618h3.097v4.618h3.872v2.489z" style="fill:#353535;fill-opacity:1;stroke-width:1.00557327px" transform="translate(-9.071 -114.724)"/></g><g aria-label="TM" style="font-style:normal;font-variant:normal;font-weight:400;font-stretch:normal;font-size:7.27604151px;line-height:125%;font-family:Montserrat;-inkscape-font-specification:Montserrat;letter-spacing:0;word-spacing:0;fill:#353535;fill-opacity:1;stroke:none;stroke-width:.26458332px;stroke-linecap:butt;stroke-linejoin:miter;stroke-opacity:1"><path d="M197.668 115.51v4.3h-.858v-4.3h-1.543v-.786h3.944v.786zM200.997 119.81h-.859v-5.086h1.34l1.535 3.194 1.535-3.194h1.331v5.086h-.858v-3.973l-1.776 3.53h-.48l-1.768-3.53z" style="fill:#353535;fill-opacity:1;stroke-width:.26458332px" transform="translate(-9.071 -114.724)"/></g></svg>